# xmcd
#
# Track frame offsets:
#	150
#	22657
#	32690
#	50620
#	61945
#	77142
#	89079
#	102080
#	115140
#	126400
#	137607
#	151227
#
# Disc length: 2199 seconds
#
# Revision: 0
# Processed by: cddbd v1.5.1PL0 Copyright (c) Steve Scherf et al.
# Submitted via: EasyCDDAExtractor 8.2.1.1
#
DISCID=9508950c
DTITLE=Various Artist - Voices Of The Blues
DYEAR=2005
DGENRE=Blues
TTITLE0=B.B. King - The Thrill Is Gone (Live)
TTITLE1=Buddy Guy - First Times I Met The Blues
TTITLE2=Lightnin' Hopkins - Shake That Thing
TTITLE3=John Lee Hooker - Boom Boom
TTITLE4=Bo Diddley - I'm Going Home (Live)
TTITLE5=Memphis Slim - Let The Good Times Roll Creole
TTITLE6=Charles Brown - Rockin' Blues
TTITLE7=Big Maybelle - I Won't Cry Anymore
TTITLE8=Elmore James - Look On Yonder Wall
TTITLE9=Big Joe Williams - Bye Bye Baby Blues
TTITLE10=Dinah Washington - Blues On My Weary Mind
TTITLE11=Leadbelly - Where Did You Sleep Last Night
EXTD=
EXTT0=
EXTT1=
EXTT2=
EXTT3=
EXTT4=
EXTT5=
EXTT6=
EXTT7=
EXTT8=
EXTT9=
EXTT10=
EXTT11=
PLAYORDER=
